<svg width="88" height="88" viewBox="0 0 88 88" fill="none" xmlns="http://www.w3.org/2000/svg">
<path d="M43.1191 2.65625V7.05625" stroke="#5E5BFB" stroke-width="2.75" stroke-linecap="round" stroke-linejoin="round"/>
<path d="M43.1191 79.6562V84.0563" stroke="#5E5BFB" stroke-width="2.75" stroke-linecap="round" stroke-linejoin="round"/>
<path d="M14.0801 13.8765L17.1913 16.9878" stroke="#5E5BFB" stroke-width="2.75" stroke-linecap="round" stroke-linejoin="round"/>
<path d="M69.0801 68.8765L72.1913 71.9878" stroke="#5E5BFB" stroke-width="2.75" stroke-linecap="round" stroke-linejoin="round"/>
<path d="M14.0801 72.2075L17.1913 69.0962" stroke="#5E5BFB" stroke-width="2.75" stroke-linecap="round" stroke-linejoin="round"/>
<path d="M69.5195 16.7671L72.6308 13.6559" stroke="#5E5BFB" stroke-width="2.75" stroke-linecap="round" stroke-linejoin="round"/>
<path d="M48.8433 34.8066C49.3495 34.8066 49.76 34.3962 49.76 33.8899V33.0129C49.76 32.5067 49.3495 32.0962 48.8433 32.0962H35.985C35.4788 32.0962 35.0684 32.5067 35.0684 33.0129V33.8899C35.0684 34.3962 35.4788 34.8066 35.985 34.8066H39.2572C41.0099 34.8066 42.0294 35.5189 42.5575 36.408C42.7189 36.6796 42.499 36.9934 42.1831 36.9934H35.985C35.4788 36.9934 35.0684 37.4039 35.0684 37.9101V38.7871C35.0684 39.2934 35.4788 39.7038 35.985 39.7038H42.2531C42.5576 39.7038 42.7789 39.9978 42.6426 40.27C42.14 41.2743 41.0693 41.983 38.98 41.983H35.985C35.4788 41.983 35.0684 42.3935 35.0684 42.8997V44.2904C35.0684 44.5473 35.1761 44.7923 35.3653 44.9659L44.1378 53.0146C44.3069 53.1697 44.5281 53.2558 44.7575 53.2558H48.0248C48.4431 53.2558 48.6428 52.7414 48.334 52.4592L40.2428 45.063V45.0014C43.7561 44.6176 46.194 43.1018 46.7698 40.1012C46.8131 39.8754 47.0057 39.7038 47.2357 39.7038H48.8433C49.3495 39.7038 49.76 39.2934 49.76 38.7871V37.9101C49.76 37.4039 49.3495 36.9934 48.8433 36.9934H47.0256C46.821 36.9934 46.6432 36.857 46.5735 36.6645C46.3123 35.9425 45.8997 35.32 45.4172 34.8374V34.8066H48.8433Z" fill="#5E5BFB"/>
<path d="M43.1191 62.8812C54.51 62.8812 63.7441 53.6471 63.7441 42.2562C63.7441 30.8654 54.51 21.6312 43.1191 21.6312C31.7283 21.6312 22.4941 30.8654 22.4941 42.2562C22.4941 53.6471 31.7283 62.8812 43.1191 62.8812Z" stroke="#3C4852" stroke-width="2.75"/>
<path d="M43.1203 71.6812C59.3713 71.6812 72.5453 58.5072 72.5453 42.2562C72.5453 26.0052 59.3713 12.8312 43.1203 12.8312C26.8693 12.8312 13.6953 26.0052 13.6953 42.2562C13.6953 58.5072 26.8693 71.6812 43.1203 71.6812Z" stroke="#3C4852" stroke-width="2.75"/>
<path d="M2.19922 43.136H6.59922" stroke="#5E5BFB" stroke-width="2.75" stroke-linecap="round" stroke-linejoin="round"/>
<path d="M80.5195 43.136H84.9195" stroke="#5E5BFB" stroke-width="2.75" stroke-linecap="round" stroke-linejoin="round"/>
</svg>
