<svg width="96" height="96" viewBox="0 0 96 96" fill="none" xmlns="http://www.w3.org/2000/svg">
<path d="M69.6004 19.6976H26.4004V79.6976H69.6004V19.6976Z" stroke="#3C4852" stroke-width="3" stroke-linecap="round" stroke-linejoin="round"/>
<path d="M60.4016 26.8976H35.6016C34.497 26.8976 33.6016 27.793 33.6016 28.8976V36.8976C33.6016 38.0022 34.497 38.8976 35.6016 38.8976H60.4016C61.5061 38.8976 62.4016 38.0022 62.4016 36.8976V28.8976C62.4016 27.793 61.5061 26.8976 60.4016 26.8976Z" fill="#5E5BFB"/>
<path d="M38.4 48.4976C39.7255 48.4976 40.8 47.4231 40.8 46.0976C40.8 44.7721 39.7255 43.6976 38.4 43.6976C37.0745 43.6976 36 44.7721 36 46.0976C36 47.4231 37.0745 48.4976 38.4 48.4976Z" fill="#3C4852"/>
<path d="M47.9996 48.4976C49.3251 48.4976 50.3996 47.4231 50.3996 46.0976C50.3996 44.7721 49.3251 43.6976 47.9996 43.6976C46.6741 43.6976 45.5996 44.7721 45.5996 46.0976C45.5996 47.4231 46.6741 48.4976 47.9996 48.4976Z" fill="#3C4852"/>
<path d="M57.6012 48.4976C58.9267 48.4976 60.0012 47.4231 60.0012 46.0976C60.0012 44.7721 58.9267 43.6976 57.6012 43.6976C56.2757 43.6976 55.2012 44.7721 55.2012 46.0976C55.2012 47.4231 56.2757 48.4976 57.6012 48.4976Z" fill="#3C4852"/>
<path d="M38.4 55.6976C39.7255 55.6976 40.8 54.6231 40.8 53.2976C40.8 51.9721 39.7255 50.8976 38.4 50.8976C37.0745 50.8976 36 51.9721 36 53.2976C36 54.6231 37.0745 55.6976 38.4 55.6976Z" fill="#3C4852"/>
<path d="M47.9996 55.6976C49.3251 55.6976 50.3996 54.6231 50.3996 53.2976C50.3996 51.9721 49.3251 50.8976 47.9996 50.8976C46.6741 50.8976 45.5996 51.9721 45.5996 53.2976C45.5996 54.6231 46.6741 55.6976 47.9996 55.6976Z" fill="#3C4852"/>
<path d="M57.6012 55.6976C58.9267 55.6976 60.0012 54.6231 60.0012 53.2976C60.0012 51.9721 58.9267 50.8976 57.6012 50.8976C56.2757 50.8976 55.2012 51.9721 55.2012 53.2976C55.2012 54.6231 56.2757 55.6976 57.6012 55.6976Z" fill="#3C4852"/>
<path d="M38.4 62.8975C39.7255 62.8975 40.8 61.823 40.8 60.4975C40.8 59.1721 39.7255 58.0975 38.4 58.0975C37.0745 58.0975 36 59.1721 36 60.4975C36 61.823 37.0745 62.8975 38.4 62.8975Z" fill="#3C4852"/>
<path d="M47.9996 62.8975C49.3251 62.8975 50.3996 61.823 50.3996 60.4975C50.3996 59.1721 49.3251 58.0975 47.9996 58.0975C46.6741 58.0975 45.5996 59.1721 45.5996 60.4975C45.5996 61.823 46.6741 62.8975 47.9996 62.8975Z" fill="#3C4852"/>
<path d="M57.6012 62.8975C58.9267 62.8975 60.0012 61.823 60.0012 60.4975C60.0012 59.1721 58.9267 58.0975 57.6012 58.0975C56.2757 58.0975 55.2012 59.1721 55.2012 60.4975C55.2012 61.823 56.2757 62.8975 57.6012 62.8975Z" fill="#3C4852"/>
<path d="M41.2 67.6976H38C36.8954 67.6976 36 68.5931 36 69.6976V70.4976C36 71.6022 36.8954 72.4976 38 72.4976H41.2C42.3046 72.4976 43.2 71.6022 43.2 70.4976V69.6976C43.2 68.5931 42.3046 67.6976 41.2 67.6976Z" fill="#3C4852"/>
<path d="M50.8016 67.6976H47.6016C46.497 67.6976 45.6016 68.5931 45.6016 69.6976V70.4976C45.6016 71.6022 46.497 72.4976 47.6016 72.4976H50.8016C51.9061 72.4976 52.8016 71.6022 52.8016 70.4976V69.6976C52.8016 68.5931 51.9061 67.6976 50.8016 67.6976Z" fill="#3C4852"/>
</svg>
