<svg width="19" height="20" viewBox="0 0 19 20" fill="none" xmlns="http://www.w3.org/2000/svg">
<circle cx="9.23499" cy="10.1979" r="9.22523" fill="#EFEFEF"/>
<path d="M13.8471 6.16194H12.0194L10.9642 5.00879H7.50479L6.44965 6.16194H4.6219C3.98767 6.16194 3.46875 6.68086 3.46875 7.3151V14.234C3.46875 14.8682 3.98767 15.3872 4.6219 15.3872H13.8471C14.4814 15.3872 15.0003 14.8682 15.0003 14.234V7.3151C15.0003 6.68086 14.4814 6.16194 13.8471 6.16194ZM13.8471 14.234H4.6219V7.3151H6.95704L8.01217 6.16194H10.4569L11.512 7.3151H13.8471V14.234ZM9.23452 7.89167C7.64316 7.89167 6.35163 9.1832 6.35163 10.7746C6.35163 12.3659 7.64316 13.6574 9.23452 13.6574C10.8259 13.6574 12.1174 12.3659 12.1174 10.7746C12.1174 9.1832 10.8259 7.89167 9.23452 7.89167ZM9.23452 12.5043C8.28316 12.5043 7.50479 11.7259 7.50479 10.7746C7.50479 9.8232 8.28316 9.04483 9.23452 9.04483C10.1859 9.04483 10.9642 9.8232 10.9642 10.7746C10.9642 11.7259 10.1859 12.5043 9.23452 12.5043Z" fill="#565E6D"/>
</svg>
