<svg width="88" height="88" viewBox="0 0 88 88" fill="none" xmlns="http://www.w3.org/2000/svg">
<path d="M9.23825 19.4689H1.64844V70.6176H9.23825V19.4689Z" stroke="#3C4852" stroke-width="2.74994" stroke-miterlimit="10" stroke-linecap="round" stroke-linejoin="round"/>
<path d="M1.64844 19.4687L5.45436 8.64502L9.23825 19.4687" stroke="#3C4852" stroke-width="2.74994" stroke-miterlimit="10" stroke-linecap="round" stroke-linejoin="round"/>
<path d="M1.64844 70.6173V77.2831H9.23825V70.6173" stroke="#3C4852" stroke-width="2.74994" stroke-miterlimit="10" stroke-linecap="round" stroke-linejoin="round"/>
<path d="M85.798 8.7998H17.5996V76.9981H85.798V8.7998Z" stroke="#3C4852" stroke-width="2.74994" stroke-linecap="round" stroke-linejoin="round"/>
<path d="M26.3984 29.6992H48.3979" stroke="#3C4852" stroke-width="2.74994" stroke-linecap="round" stroke-linejoin="round"/>
<path d="M26.3984 37.3994H48.3979" stroke="#3C4852" stroke-width="2.74994" stroke-linecap="round" stroke-linejoin="round"/>
<path d="M26.3984 51.6986H65.9975" stroke="#3C4852" stroke-width="2.74994" stroke-linecap="round" stroke-linejoin="round"/>
<path d="M26.3984 60.4987H72.5973" stroke="#3C4852" stroke-width="2.74994" stroke-linecap="round" stroke-linejoin="round"/>
<path d="M66.3995 28.5995L61.5996 42.3781H63.9996L65.5996 43.9991L70.3994 30.2204" stroke="#3C4852" stroke-width="1.83329" stroke-linecap="round" stroke-linejoin="round"/>
<path d="M76.5975 28.5995L81.3975 42.3781H78.9975L77.3975 43.9991L72.5977 30.2204" stroke="#3C4852" stroke-width="1.83329" stroke-linecap="round" stroke-linejoin="round"/>
<path d="M71.4993 32.9992C76.9668 32.9992 81.3991 28.5669 81.3991 23.0994C81.3991 17.632 76.9668 13.1997 71.4993 13.1997C66.0319 13.1997 61.5996 17.632 61.5996 23.0994C61.5996 28.5669 66.0319 32.9992 71.4993 32.9992Z" fill="#5E5BFB"/>
</svg>
