<svg width="88" height="88" viewBox="0 0 88 88" fill="none" xmlns="http://www.w3.org/2000/svg">
<path d="M13.1992 80.096V24.656L38.104 29.6369C41.5318 30.3225 43.9992 33.3322 43.9992 36.8279V84.716L13.1992 80.096Z" stroke="#3C4852" stroke-width="2.75" stroke-linejoin="round"/>
<path d="M74.8 80.096V24.656L49.8952 29.6369C46.4674 30.3225 44 33.3322 44 36.8279V84.716L74.8 80.096Z" stroke="#3C4852" stroke-width="2.75" stroke-linejoin="round"/>
<path d="M13.1992 67.776L36.2992 72.396C38.3526 72.9093 42.7672 75.168 43.9992 80.096" stroke="#3C4852" stroke-width="2.75"/>
<path d="M74.8 67.776L51.7 72.396C49.6467 72.9093 45.232 75.168 44 80.096" stroke="#3C4852" stroke-width="2.75"/>
<path d="M22.3203 43.8394L36.4197 45.5104" stroke="#3C4852" stroke-width="2.75" stroke-linecap="round" stroke-linejoin="round"/>
<path d="M22.3203 56.1593L36.4197 57.8304" stroke="#3C4852" stroke-width="2.75" stroke-linecap="round" stroke-linejoin="round"/>
<path d="M67.2205 43.8394L53.1211 45.5104" stroke="#3C4852" stroke-width="2.75" stroke-linecap="round" stroke-linejoin="round"/>
<path d="M67.2205 56.1593L53.1211 57.8304" stroke="#3C4852" stroke-width="2.75" stroke-linecap="round" stroke-linejoin="round"/>
<path d="M63.8 2.65601H22V15.856H63.8V2.65601Z" stroke="#3C4852" stroke-width="2.75" stroke-linejoin="round"/>
<path d="M30.3829 10.0028C30.3325 10.4597 30.1352 10.8165 29.791 11.0735C29.4467 11.3283 28.9889 11.4558 28.4175 11.4558C28.0182 11.4558 27.6659 11.3754 27.3608 11.2146C27.0578 11.0518 26.8238 10.8215 26.6585 10.5235C26.4933 10.2254 26.4073 9.87933 26.4004 9.48516V9.08522C26.4004 8.68127 26.4842 8.32539 26.6516 8.01754C26.8192 7.7097 27.059 7.47245 27.371 7.30578C27.6855 7.13911 28.048 7.05579 28.4588 7.05579C29.0119 7.05579 29.457 7.18421 29.7943 7.44108C30.1317 7.69794 30.3279 8.06068 30.3829 8.52931H29.5156C29.4742 8.22147 29.3686 7.9999 29.1989 7.86461C29.0313 7.72735 28.7846 7.65872 28.4588 7.65872C28.0802 7.65872 27.7888 7.77735 27.5845 8.0146C27.3826 8.2499 27.2793 8.59598 27.2747 9.05286V9.43227C27.2747 9.895 27.371 10.2479 27.5638 10.4911C27.7589 10.7342 28.0434 10.8558 28.4175 10.8558C28.7594 10.8558 29.0165 10.7901 29.1885 10.6587C29.3607 10.5273 29.4697 10.3087 29.5156 10.0028H30.3829Z" fill="#5E5BFB"/>
<path d="M32.5388 10.803H34.8141V11.3971H31.668V7.11475H32.5388V10.803Z" fill="#5E5BFB"/>
<path d="M38.8584 10.4H36.9169L36.5108 11.3971H35.6055L37.4987 7.11475H38.28L40.1767 11.3971H39.268L38.8584 10.4ZM37.1613 9.79999H38.614L37.8877 8.02357L37.1613 9.79999Z" fill="#5E5BFB"/>
<path d="M43.8723 10.294C43.8723 10.1057 43.7942 9.96064 43.6381 9.85871C43.4844 9.75677 43.2056 9.65383 42.8017 9.54988C42.3979 9.44602 42.0766 9.33025 41.8379 9.20283C41.3813 8.95771 41.153 8.63814 41.153 8.24401C41.153 7.89892 41.317 7.6146 41.6451 7.39107C41.9756 7.16755 42.4036 7.05579 42.9291 7.05579C43.2779 7.05579 43.5888 7.11068 43.8619 7.22048C44.135 7.33029 44.3496 7.48715 44.5056 7.69107C44.6616 7.89303 44.7397 8.11754 44.7397 8.3646H43.8723C43.8723 8.14107 43.7897 7.96657 43.6244 7.84108C43.4615 7.71362 43.2274 7.6499 42.9222 7.6499C42.6377 7.6499 42.4162 7.70186 42.2578 7.80578C42.1018 7.90971 42.0238 8.05481 42.0238 8.24107C42.0238 8.39794 42.1087 8.52931 42.2785 8.63519C42.4483 8.73909 42.7283 8.84111 43.1184 8.94112C43.5085 9.03911 43.8217 9.15186 44.0582 9.27928C44.2945 9.40477 44.4677 9.54988 44.5779 9.71461C44.688 9.87731 44.7431 10.0685 44.7431 10.2882C44.7431 10.645 44.5825 10.9293 44.2612 11.1411C43.9422 11.3509 43.5085 11.4558 42.9601 11.4558C42.5974 11.4558 42.2636 11.3989 41.9584 11.2852C41.6555 11.1695 41.4192 11.0107 41.2493 10.8087C41.0818 10.6068 40.998 10.3715 40.998 10.1028H41.8689C41.8689 10.346 41.963 10.5342 42.1511 10.6676C42.3393 10.8009 42.609 10.8676 42.9601 10.8676C43.2629 10.8676 43.4902 10.8156 43.6416 10.7117C43.7953 10.6058 43.8723 10.4665 43.8723 10.294Z" fill="#5E5BFB"/>
<path d="M48.6301 10.294C48.6301 10.1057 48.5521 9.96064 48.396 9.85871C48.2422 9.75677 47.9634 9.65383 47.5596 9.54988C47.1557 9.44602 46.8344 9.33025 46.5957 9.20283C46.1391 8.95771 45.9108 8.63814 45.9108 8.24401C45.9108 7.89892 46.0749 7.6146 46.4029 7.39107C46.7334 7.16755 47.1614 7.05579 47.6869 7.05579C48.0357 7.05579 48.3466 7.11068 48.6197 7.22048C48.8928 7.33029 49.1074 7.48715 49.2634 7.69107C49.4194 7.89303 49.4975 8.11754 49.4975 8.3646H48.6301C48.6301 8.14107 48.5475 7.96657 48.3822 7.84108C48.2193 7.71362 47.9852 7.6499 47.68 7.6499C47.3955 7.6499 47.174 7.70186 47.0156 7.80578C46.8596 7.90971 46.7816 8.05481 46.7816 8.24107C46.7816 8.39794 46.8665 8.52931 47.0364 8.63519C47.2061 8.73909 47.4861 8.84111 47.8762 8.94112C48.2663 9.03911 48.5796 9.15186 48.816 9.27928C49.0523 9.40477 49.2255 9.54988 49.3357 9.71461C49.4458 9.87731 49.5009 10.0685 49.5009 10.2882C49.5009 10.645 49.3403 10.9293 49.019 11.1411C48.7 11.3509 48.2663 11.4558 47.7179 11.4558C47.3553 11.4558 47.0214 11.3989 46.7163 11.2852C46.4133 11.1695 46.177 11.0107 46.0071 10.8087C45.8396 10.6068 45.7559 10.3715 45.7559 10.1028H46.6267C46.6267 10.346 46.7208 10.5342 46.9089 10.6676C47.0971 10.8009 47.3668 10.8676 47.7179 10.8676C48.0208 10.8676 48.248 10.8156 48.3994 10.7117C48.5532 10.6058 48.6301 10.4665 48.6301 10.294Z" fill="#5E5BFB"/>
<path d="M59.5335 11.3973H58.666V7.11499H59.5335V11.3973Z" fill="#5E5BFB"/>
<path d="M53.8585 8.66193L54.9117 7.11487H55.9168L54.4023 9.23841L55.9513 11.3973H54.9358L53.8585 9.82663L52.7776 11.3973H51.7656L53.318 9.23841L51.8 7.11487H52.8051L53.8585 8.66193Z" fill="#5E5BFB"/>
<path d="M57.7014 11.3974H56.834V7.11499H57.7014V11.3974Z" fill="#5E5BFB"/>
</svg>
