<svg width="88" height="88" viewBox="0 0 88 88" fill="none" xmlns="http://www.w3.org/2000/svg">
<path d="M61.6 50.9835C65.2451 50.9835 68.2 48.0591 68.2 44.4515C68.2 40.8441 65.2451 37.9196 61.6 37.9196C57.955 37.9196 55 40.8441 55 44.4515C55 48.0591 57.955 50.9835 61.6 50.9835Z" stroke="#5E5BFB" stroke-width="2.75" stroke-miterlimit="10" stroke-linecap="round" stroke-linejoin="round"/>
<path d="M61.6004 61.7105C62.6406 61.7105 63.6502 61.6196 64.6599 61.438L69.3101 65.9193C70.8092 65.4045 72.3083 64.7686 73.7157 63.9511C75.1536 63.1336 76.4692 62.1949 77.6318 61.1654L76.0408 54.9583C77.3258 53.4141 78.366 51.6276 79.0697 49.7201L85.3109 47.9639C85.6169 46.4197 85.8004 44.815 85.8004 43.2102C85.8004 41.6054 85.6474 39.9703 85.3109 38.4564L79.0697 36.7002C78.3354 34.7927 77.3258 33.0062 76.0408 31.462L77.6318 25.2548C76.4386 24.2253 75.1231 23.2867 73.7157 22.4692C72.2777 21.6516 70.8092 20.9856 69.3101 20.5011L64.6599 24.9823C63.6808 24.8309 62.6406 24.7098 61.6004 24.7098C60.5602 24.7098 59.5505 24.8007 58.541 24.9823L53.8907 20.5011C52.3916 21.0158 50.8924 21.6516 49.4851 22.4692C48.0472 23.2867 46.7316 24.2253 45.5691 25.2548L47.16 31.462C45.875 33.0062 44.8347 34.7927 44.1311 36.7002L37.8899 38.4564C37.584 40.0006 37.4004 41.6054 37.4004 43.2102C37.4004 44.815 37.5534 46.4499 37.8899 47.9639L44.1311 49.7201C44.8654 51.6276 45.875 53.4141 47.16 54.9583L45.5691 61.1654C46.7622 62.1949 48.0777 63.1336 49.4851 63.9511C50.9231 64.7686 52.3916 65.4348 53.8907 65.9193L58.541 61.438C59.5505 61.6196 60.5602 61.7105 61.6004 61.7105Z" stroke="#3C4852" stroke-width="2.75" stroke-miterlimit="10" stroke-linecap="round" stroke-linejoin="round"/>
<path d="M56.9897 65.9636L38.2018 41.1639V14.9272H22.7798V41.1639L3.96973 65.9636C-0.364276 71.69 3.74973 79.8331 10.9878 79.8331H49.9938C57.2098 79.8549 61.3237 71.69 56.9897 65.9636Z" fill="white" stroke="#3C4852" stroke-width="2.75" stroke-miterlimit="10" stroke-linecap="round" stroke-linejoin="round"/>
<path d="M21.2422 9.61438H39.7442" stroke="#3C4852" stroke-width="2.75" stroke-miterlimit="10" stroke-linecap="round" stroke-linejoin="round"/>
<path d="M39.7422 71.407H49.2902" stroke="#5E5BFB" stroke-width="2.75" stroke-miterlimit="10" stroke-linecap="round" stroke-linejoin="round"/>
<path d="M11.6914 71.407H35.3414" stroke="#5E5BFB" stroke-width="2.75" stroke-miterlimit="10" stroke-linecap="round" stroke-linejoin="round"/>
<path d="M30.4824 63.4376H43.9244" stroke="#5E5BFB" stroke-width="2.75" stroke-miterlimit="10" stroke-linecap="round" stroke-linejoin="round"/>
<path d="M17.0605 63.4376H22.5165" stroke="#5E5BFB" stroke-width="2.75" stroke-miterlimit="10" stroke-linecap="round" stroke-linejoin="round"/>
</svg>
