<svg width="88" height="88" viewBox="0 0 88 88" fill="none" xmlns="http://www.w3.org/2000/svg">
<path fill-rule="evenodd" clip-rule="evenodd" d="M43.9996 16.6906C44.9109 16.6906 45.6496 17.4217 45.6496 18.3235V72.7565C45.6496 73.6584 44.9109 74.3895 43.9996 74.3895C43.0883 74.3895 42.3496 73.6584 42.3496 72.7565V18.3235C42.3496 17.4217 43.0883 16.6906 43.9996 16.6906Z" fill="#3C4852"/>
<path fill-rule="evenodd" clip-rule="evenodd" d="M53.9012 7.9812C54.8124 7.9812 55.5512 8.71231 55.5512 9.61418C55.5512 12.4234 54.2809 15.0724 52.0977 16.9931C49.9207 18.9082 47.0057 19.9564 44.0012 19.9564C40.9965 19.9564 38.0815 18.9082 35.9045 16.9931C33.7213 15.0724 32.4512 12.4234 32.4512 9.61418C32.4512 8.71232 33.1898 7.9812 34.1012 7.9812C35.0124 7.9812 35.7512 8.71232 35.7512 9.61418C35.7512 11.4247 36.567 13.2061 38.097 14.5521C39.6333 15.9036 41.7544 16.6905 44.0012 16.6905C46.2478 16.6905 48.369 15.9036 49.9053 14.5521C51.4352 13.2061 52.2512 11.4247 52.2512 9.61418C52.2512 8.71231 52.9898 7.9812 53.9012 7.9812Z" fill="#3C4852"/>
<path fill-rule="evenodd" clip-rule="evenodd" d="M35.2671 8.4595C35.9115 9.09725 35.9115 10.1312 35.2671 10.7689C31.7197 14.2797 26.7833 16.742 21.986 18.3712C17.1737 20.0054 12.3494 20.8525 8.89196 21.0426C7.98209 21.0926 7.20352 20.4032 7.15298 19.5028C7.10242 18.6022 7.79904 17.8317 8.70891 17.7817C11.8514 17.6088 16.3772 16.823 20.9149 15.282C25.4676 13.7358 29.8811 11.4806 32.9337 8.4595C33.5781 7.82177 34.6228 7.82177 35.2671 8.4595Z" fill="#3C4852"/>
<path fill-rule="evenodd" clip-rule="evenodd" d="M52.7333 8.4595C52.0889 9.09725 52.0889 10.1312 52.7333 10.7689C56.2807 14.2797 61.2172 16.742 66.0144 18.3712C70.8268 20.0054 75.651 20.8525 79.1085 21.0426C80.0184 21.0926 80.7969 20.4032 80.8475 19.5028C80.898 18.6022 80.2014 17.8317 79.2915 17.7817C76.149 17.6088 71.6232 16.823 67.0856 15.282C62.5328 13.7358 58.1193 11.4806 55.0667 8.4595C54.4224 7.82177 53.3776 7.82177 52.7333 8.4595Z" fill="#3C4852"/>
<path fill-rule="evenodd" clip-rule="evenodd" d="M36.1903 13.7511C36.9193 14.2923 37.067 15.3158 36.5203 16.0373C33.007 20.6734 28.2535 24.2094 21.1716 25.3776C20.2727 25.5258 19.4226 24.9249 19.2727 24.0353C19.1229 23.1456 19.7301 22.3043 20.629 22.1561C26.7471 21.1469 30.7936 18.151 33.8803 14.0777C34.427 13.3562 35.4613 13.21 36.1903 13.7511Z" fill="#3C4852"/>
<path fill-rule="evenodd" clip-rule="evenodd" d="M51.8086 13.7511C51.0795 14.2923 50.9318 15.3158 51.4785 16.0373C54.9918 20.6734 59.7453 24.2094 66.8272 25.3776C67.7261 25.5258 68.5762 24.9249 68.7261 24.0353C68.8759 23.1456 68.2687 22.3043 67.3698 22.1561C61.2517 21.1469 57.2052 18.151 54.1186 14.0777C53.5718 13.3562 52.5375 13.21 51.8086 13.7511Z" fill="#3C4852"/>
<path d="M53.9004 25.3997C53.9004 26.9028 52.6692 28.1214 51.1504 28.1214C49.6316 28.1214 48.4004 26.9028 48.4004 25.3997C48.4004 23.8966 49.6316 22.6781 51.1504 22.6781C52.6692 22.6781 53.9004 23.8966 53.9004 25.3997Z" fill="#7E7BFF"/>
<path d="M39.5996 25.3997C39.5996 26.9028 38.3684 28.1214 36.8496 28.1214C35.3308 28.1214 34.0996 26.9028 34.0996 25.3997C34.0996 23.8966 35.3308 22.6781 36.8496 22.6781C38.3684 22.6781 39.5996 23.8966 39.5996 25.3997Z" fill="#7E7BFF"/>
<path fill-rule="evenodd" clip-rule="evenodd" d="M37.7337 25.134C38.1859 25.917 37.911 26.9146 37.1198 27.362L32.9868 29.6994C31.2952 30.656 30.2512 32.4365 30.2512 34.3647C30.2512 36.5233 31.5563 38.4723 33.565 39.3134L53.8514 47.8077C56.882 49.0766 58.8512 52.0172 58.8512 55.2739C58.8512 58.6112 56.7848 61.6074 53.6447 62.8235L51.4774 63.6628C50.6289 63.9915 49.6717 63.577 49.3397 62.7372C49.0075 61.8973 49.4263 60.9501 50.2749 60.6214L52.4422 59.7821C54.3172 59.0559 55.5512 57.2667 55.5512 55.2739C55.5512 53.3292 54.3754 51.5733 52.5656 50.8155L32.2792 42.3213C29.0496 40.969 26.9512 37.8353 26.9512 34.3647C26.9512 31.2645 28.6297 28.4019 31.3495 26.8637L35.4826 24.5263C36.2738 24.0789 37.2816 24.351 37.7337 25.134ZM50.2686 25.134C50.7207 24.351 51.7286 24.0789 52.5198 24.5263L56.6528 26.8637C59.3727 28.4019 61.0512 31.2645 61.0512 34.3647C61.0512 37.8353 58.9527 40.969 55.7231 42.3213L51.1066 44.2543C50.2673 44.6057 49.2991 44.2173 48.9441 43.3866C48.589 42.5561 48.9815 41.5979 49.8208 41.2464L54.4373 39.3134C56.446 38.4723 57.7512 36.5233 57.7512 34.3647C57.7512 32.4365 56.7072 30.656 55.0156 29.6994L50.8826 27.362C50.0913 26.9146 49.8164 25.917 50.2686 25.134ZM39.4707 47.3533C39.8258 48.1839 39.4333 49.1421 38.5941 49.4935L35.4171 50.8237C33.6193 51.5764 32.4512 53.3209 32.4512 55.2529C32.4512 57.2485 33.6964 59.0368 35.5807 59.7471L50.607 65.4125C53.5857 66.5354 55.5512 69.3675 55.5512 72.5184C55.5512 75.2698 54.0444 77.8118 51.6117 79.1494C46.8787 81.7517 41.1237 81.7517 36.3906 79.1494L36.2046 79.0471C33.888 77.7733 32.4512 75.3568 32.4512 72.734C32.4512 70.1424 33.8543 67.7494 36.1279 66.4636L37.1326 65.8954C37.9238 65.448 38.9316 65.72 39.3837 66.5031C39.8359 67.2861 39.561 68.2836 38.7698 68.7311L37.7652 69.2992C36.5198 70.0036 35.7512 71.3144 35.7512 72.734C35.7512 74.1707 36.5382 75.4944 37.8072 76.1921L37.9932 76.2945C41.7296 78.3488 46.2728 78.3488 50.0091 76.2945C51.3916 75.5343 52.2512 74.0867 52.2512 72.5184C52.2512 70.7191 51.1278 69.1038 49.4322 68.4645L34.4059 62.7992C31.242 61.6063 29.1512 58.6037 29.1512 55.2529C29.1512 52.0089 31.1127 49.0799 34.1313 47.8159L37.3083 46.4856C38.1475 46.1342 39.1157 46.5227 39.4707 47.3533Z" fill="#7E7BFF"/>
</svg>
