<svg width="88" height="88" viewBox="0 0 88 88" fill="none" xmlns="http://www.w3.org/2000/svg">
<path d="M66 12.8334H22C18.9624 12.8334 16.5 15.2958 16.5 18.3334V77C16.5 80.0376 18.9624 82.5 22 82.5H66C69.0376 82.5 71.5 80.0376 71.5 77V18.3334C71.5 15.2958 69.0376 12.8334 66 12.8334Z" stroke="#3C4852" stroke-width="2.75" stroke-miterlimit="10" stroke-linecap="round" stroke-linejoin="round"/>
<path d="M55.0007 9.16663H33.0007C30.9756 9.16663 29.334 10.8082 29.334 12.8333C29.334 14.8583 30.9756 16.5 33.0007 16.5H55.0007C57.0257 16.5 58.6673 14.8583 58.6673 12.8333C58.6673 10.8082 57.0257 9.16663 55.0007 9.16663Z" fill="white" stroke="#3C4852" stroke-width="2.75" stroke-miterlimit="10" stroke-linecap="round" stroke-linejoin="round"/>
<path d="M38.5 8.25C38.5 8.75626 38.9104 9.16667 39.4167 9.16667H48.5833C49.0896 9.16667 49.5 8.75626 49.5 8.25C49.5 6.73122 48.2688 5.5 46.75 5.5H41.25C39.7312 5.5 38.5 6.73122 38.5 8.25Z" stroke="#3C4852" stroke-width="2.75" stroke-miterlimit="10" stroke-linecap="round" stroke-linejoin="round"/>
<path d="M40.334 29.3334H64.1673" stroke="#3C4852" stroke-width="2.75" stroke-miterlimit="10" stroke-linecap="round" stroke-linejoin="round"/>
<path d="M40.334 36.667H49.5007" stroke="#3C4852" stroke-width="2.75" stroke-miterlimit="10" stroke-linecap="round" stroke-linejoin="round"/>
<path d="M40.334 51.3334H64.1673" stroke="#3C4852" stroke-width="2.75" stroke-miterlimit="10" stroke-linecap="round" stroke-linejoin="round"/>
<path d="M40.334 58.667H64.1673" stroke="#3C4852" stroke-width="2.75" stroke-miterlimit="10" stroke-linecap="round" stroke-linejoin="round"/>
<path d="M23.834 33.9167L26.584 36.6667L33.0007 29.3334" stroke="#5E5BFB" stroke-width="2.75" stroke-miterlimit="10" stroke-linecap="round" stroke-linejoin="round"/>
<path d="M33.0007 49.5H23.834V58.6667H33.0007V49.5Z" stroke="#5E5BFB" stroke-width="2.75" stroke-miterlimit="10" stroke-linecap="round" stroke-linejoin="round"/>
</svg>
