<svg width="165" height="30" viewBox="0 0 165 30" fill="none" xmlns="http://www.w3.org/2000/svg">
<path d="M8.568 23.384C6.94667 23.384 5.496 23.1067 4.216 22.552C2.95733 21.9973 1.96533 21.1867 1.24 20.12C0.514667 19.0533 0.130667 17.7627 0.0880001 16.248H4.664C4.68533 16.9093 4.856 17.5067 5.176 18.04C5.496 18.5733 5.93333 19 6.488 19.32C7.064 19.6187 7.75733 19.768 8.568 19.768C9.22933 19.768 9.80533 19.6613 10.296 19.448C10.808 19.2347 11.2133 18.936 11.512 18.552C11.8107 18.1467 11.96 17.6453 11.96 17.048C11.96 16.408 11.8 15.8747 11.48 15.448C11.16 15.0213 10.7227 14.6587 10.168 14.36C9.61333 14.04 8.97333 13.7627 8.248 13.528C7.544 13.2933 6.808 13.048 6.04 12.792C4.26933 12.1733 2.91467 11.384 1.976 10.424C1.05867 9.464 0.6 8.184 0.6 6.584C0.6 5.26133 0.92 4.13067 1.56 3.192C2.2 2.232 3.096 1.496 4.248 0.983999C5.4 0.471999 6.712 0.216 8.184 0.216C9.69867 0.216 11.032 0.482666 12.184 1.016C13.336 1.528 14.2427 2.27467 14.904 3.256C15.5653 4.23733 15.9173 5.38933 15.96 6.712H11.32C11.2987 6.17867 11.1493 5.69867 10.872 5.272C10.616 4.824 10.2533 4.472 9.784 4.216C9.31467 3.96 8.76 3.832 8.12 3.832C7.56533 3.81067 7.05333 3.896 6.584 4.088C6.136 4.25867 5.77333 4.536 5.496 4.92C5.24 5.28267 5.112 5.74133 5.112 6.296C5.112 6.82933 5.24 7.27733 5.496 7.64C5.752 8.00267 6.104 8.32267 6.552 8.6C7.02133 8.856 7.576 9.10133 8.216 9.336C8.856 9.57067 9.56 9.816 10.328 10.072C11.4587 10.456 12.4827 10.9147 13.4 11.448C14.3387 11.96 15.0853 12.632 15.64 13.464C16.216 14.296 16.504 15.384 16.504 16.728C16.504 17.9227 16.1947 19.0213 15.576 20.024C14.9787 21.0267 14.0933 21.8373 12.92 22.456C11.7467 23.0747 10.296 23.384 8.568 23.384ZM26.4898 23C25.3591 23 24.3671 22.8293 23.5138 22.488C22.6818 22.1253 22.0311 21.5387 21.5618 20.728C21.0924 19.896 20.8578 18.7653 20.8578 17.336V10.648H18.1378V7.128H20.8578L21.3378 2.808H25.1778V7.128H29.4018V10.648H25.1778V17.4C25.1778 18.1467 25.3378 18.6693 25.6578 18.968C25.9778 19.2453 26.5218 19.384 27.2898 19.384H29.3058V23H26.4898ZM37.8355 23.384C36.5342 23.384 35.4142 23.1067 34.4755 22.552C33.5582 21.9973 32.8542 21.176 32.3635 20.088C31.8942 18.9787 31.6595 17.624 31.6595 16.024V7.128H35.9475V15.64C35.9475 16.9627 36.2142 17.976 36.7475 18.68C37.2808 19.384 38.1342 19.736 39.3075 19.736C40.0328 19.736 40.6835 19.5653 41.2595 19.224C41.8355 18.8613 42.2835 18.36 42.6035 17.72C42.9235 17.0587 43.0835 16.2587 43.0835 15.32V7.128H47.4035V23H43.6595L43.3075 20.408H43.2435C42.7528 21.304 42.0488 22.0293 41.1315 22.584C40.2355 23.1173 39.1368 23.384 37.8355 23.384ZM57.8625 23.384C56.3692 23.384 55.0465 23.0213 53.8945 22.296C52.7638 21.5707 51.8678 20.5787 51.2065 19.32C50.5665 18.0613 50.2465 16.632 50.2465 15.032C50.2465 13.4533 50.5665 12.0347 51.2065 10.776C51.8678 9.51733 52.7745 8.536 53.9265 7.832C55.0998 7.10667 56.4438 6.744 57.9585 6.744C59.1532 6.744 60.1985 6.97867 61.0945 7.448C61.9905 7.896 62.7052 8.48267 63.2385 9.208V0.279999H67.5585V23H63.8145L63.4625 20.504H63.3985C63.0358 21.0587 62.5878 21.56 62.0545 22.008C61.5425 22.4347 60.9345 22.7653 60.2305 23C59.5478 23.256 58.7585 23.384 57.8625 23.384ZM58.9825 19.736C59.8358 19.736 60.5932 19.5333 61.2545 19.128C61.9158 18.7227 62.4278 18.168 62.7905 17.464C63.1532 16.76 63.3345 15.9493 63.3345 15.032C63.3345 14.136 63.1532 13.336 62.7905 12.632C62.4278 11.928 61.9158 11.384 61.2545 11C60.5932 10.5947 59.8252 10.392 58.9505 10.392C58.1185 10.392 57.3718 10.5947 56.7105 11C56.0492 11.384 55.5372 11.928 55.1745 12.632C54.8118 13.336 54.6305 14.136 54.6305 15.032C54.6305 15.9493 54.8118 16.76 55.1745 17.464C55.5372 18.168 56.0492 18.7227 56.7105 19.128C57.3718 19.5333 58.1292 19.736 58.9825 19.736ZM73.3125 29.72L77.1205 21.208H76.1925L69.6965 7.128H74.4005L79.0085 17.368H79.0725L83.2005 7.128H87.8085L77.8885 29.72H73.3125Z" fill="#5E5BFB"/>
<path d="M95.7263 23.384C94.3183 23.384 93.0703 23.1493 91.9823 22.68C90.8943 22.2107 90.0303 21.5707 89.3903 20.76C88.7503 19.928 88.3663 18.9893 88.2383 17.944H92.5583C92.6649 18.328 92.8463 18.6907 93.1023 19.032C93.3583 19.352 93.6996 19.6187 94.1263 19.832C94.5743 20.024 95.0863 20.12 95.6623 20.12C96.2383 20.12 96.7076 20.0453 97.0703 19.896C97.4329 19.7253 97.6996 19.512 97.8703 19.256C98.0623 18.9787 98.1583 18.7013 98.1583 18.424C98.1583 17.9973 98.0196 17.6773 97.7423 17.464C97.4863 17.2293 97.1023 17.0373 96.5903 16.888C96.0996 16.7173 95.5129 16.5467 94.8303 16.376C94.1476 16.2053 93.4436 16.0133 92.7183 15.8C92.0143 15.5867 91.3636 15.32 90.7663 15C90.1689 14.6587 89.6889 14.232 89.3263 13.72C88.9636 13.1867 88.7823 12.5253 88.7823 11.736C88.7823 10.8187 89.0383 9.98667 89.5503 9.24C90.0623 8.472 90.7983 7.864 91.7583 7.416C92.7396 6.968 93.9129 6.744 95.2783 6.744C97.1769 6.744 98.6916 7.18133 99.8223 8.056C100.974 8.93067 101.646 10.136 101.838 11.672H97.7743C97.6676 11.16 97.3903 10.7653 96.9423 10.488C96.5156 10.1893 95.9503 10.04 95.2463 10.04C94.5209 10.04 93.9556 10.1787 93.5503 10.456C93.1663 10.7333 92.9743 11.0747 92.9743 11.48C92.9743 11.7787 93.1023 12.0347 93.3583 12.248C93.6356 12.4613 94.0196 12.6427 94.5103 12.792C95.0009 12.9413 95.5876 13.112 96.2703 13.304C97.4223 13.5813 98.4569 13.8907 99.3743 14.232C100.313 14.552 101.06 15.0107 101.614 15.608C102.169 16.184 102.446 17.0267 102.446 18.136C102.468 19.1387 102.201 20.0347 101.646 20.824C101.113 21.6133 100.334 22.2427 99.3103 22.712C98.3076 23.16 97.1129 23.384 95.7263 23.384ZM105.291 23V0.279999H109.579V9.656H109.643C110.177 8.73867 110.891 8.024 111.787 7.512C112.683 7 113.739 6.744 114.955 6.744C116.235 6.744 117.323 7.032 118.219 7.608C119.137 8.16267 119.83 8.984 120.299 10.072C120.79 11.16 121.035 12.504 121.035 14.104V23H116.747V14.488C116.747 13.1653 116.481 12.152 115.947 11.448C115.435 10.744 114.603 10.392 113.451 10.392C112.705 10.392 112.043 10.5733 111.467 10.936C110.891 11.2773 110.433 11.7787 110.091 12.44C109.771 13.08 109.611 13.8693 109.611 14.808V23H105.291ZM129.508 23.384C128.207 23.384 127.129 23.1707 126.276 22.744C125.423 22.3173 124.793 21.7413 124.388 21.016C123.983 20.2907 123.78 19.4907 123.78 18.616C123.78 17.6347 124.025 16.7707 124.516 16.024C125.028 15.2773 125.796 14.7013 126.82 14.296C127.844 13.8693 129.135 13.656 130.692 13.656H134.692C134.692 12.8667 134.575 12.2267 134.34 11.736C134.127 11.224 133.785 10.84 133.316 10.584C132.868 10.328 132.292 10.2 131.588 10.2C130.756 10.2 130.041 10.392 129.444 10.776C128.868 11.1387 128.505 11.704 128.356 12.472H124.164C124.292 11.2987 124.676 10.2853 125.316 9.432C125.977 8.57867 126.852 7.91733 127.94 7.448C129.028 6.97867 130.244 6.744 131.588 6.744C133.124 6.744 134.447 7 135.556 7.512C136.665 8.00267 137.519 8.73867 138.116 9.72C138.713 10.68 139.012 11.8533 139.012 13.24V23H135.396L134.916 20.536H134.852C134.575 20.984 134.255 21.3893 133.892 21.752C133.529 22.0933 133.124 22.392 132.676 22.648C132.249 22.8827 131.769 23.064 131.236 23.192C130.703 23.32 130.127 23.384 129.508 23.384ZM130.724 20.056C131.3 20.056 131.812 19.96 132.26 19.768C132.708 19.5547 133.081 19.2773 133.38 18.936C133.7 18.5947 133.945 18.2 134.116 17.752C134.308 17.2827 134.436 16.8027 134.5 16.312H131.172C130.511 16.312 129.967 16.3973 129.54 16.568C129.135 16.7173 128.836 16.9413 128.644 17.24C128.452 17.5173 128.356 17.848 128.356 18.232C128.356 18.616 128.452 18.9467 128.644 19.224C128.836 19.5013 129.113 19.7147 129.476 19.864C129.839 19.992 130.255 20.056 130.724 20.056ZM142.229 23V0.279999H146.549V23H142.229ZM155.321 23.384C154.019 23.384 152.942 23.1707 152.089 22.744C151.235 22.3173 150.606 21.7413 150.201 21.016C149.795 20.2907 149.593 19.4907 149.593 18.616C149.593 17.6347 149.838 16.7707 150.329 16.024C150.841 15.2773 151.609 14.7013 152.633 14.296C153.657 13.8693 154.947 13.656 156.505 13.656H160.505C160.505 12.8667 160.387 12.2267 160.153 11.736C159.939 11.224 159.598 10.84 159.129 10.584C158.681 10.328 158.105 10.2 157.401 10.2C156.569 10.2 155.854 10.392 155.257 10.776C154.681 11.1387 154.318 11.704 154.169 12.472H149.977C150.105 11.2987 150.489 10.2853 151.129 9.432C151.79 8.57867 152.665 7.91733 153.753 7.448C154.841 6.97867 156.057 6.744 157.401 6.744C158.937 6.744 160.259 7 161.369 7.512C162.478 8.00267 163.331 8.73867 163.929 9.72C164.526 10.68 164.825 11.8533 164.825 13.24V23H161.209L160.729 20.536H160.665C160.387 20.984 160.067 21.3893 159.705 21.752C159.342 22.0933 158.937 22.392 158.489 22.648C158.062 22.8827 157.582 23.064 157.049 23.192C156.515 23.32 155.939 23.384 155.321 23.384ZM156.536 20.056C157.113 20.056 157.625 19.96 158.073 19.768C158.521 19.5547 158.894 19.2773 159.193 18.936C159.513 18.5947 159.758 18.2 159.929 17.752C160.121 17.2827 160.249 16.8027 160.313 16.312H156.985C156.323 16.312 155.779 16.3973 155.353 16.568C154.947 16.7173 154.649 16.9413 154.457 17.24C154.265 17.5173 154.169 17.848 154.169 18.232C154.169 18.616 154.265 18.9467 154.457 19.224C154.649 19.5013 154.926 19.7147 155.289 19.864C155.651 19.992 156.067 20.056 156.536 20.056Z" fill="#333333"/>
</svg>
