<svg width="88" height="88" viewBox="0 0 88 88" fill="none" xmlns="http://www.w3.org/2000/svg">
<path d="M45.5039 13.197V6.90503L54.3039 9.83101C54.3428 9.84458 54.3764 9.86979 54.4002 9.90334C54.4241 9.93679 54.4368 9.97694 54.4368 10.018C54.4368 10.0592 54.4241 10.0992 54.4002 10.1328C54.3764 10.1662 54.3428 10.1915 54.3039 10.205L45.5039 13.197Z" fill="#5E5BFB"/>
<path d="M44.9355 13.904V6.13806L54.4615 9.32802C54.6086 9.3712 54.7376 9.46113 54.8289 9.58414C54.9202 9.70725 54.9689 9.85676 54.9675 10.01C54.9739 10.167 54.9275 10.3216 54.8357 10.4492C54.7441 10.5768 54.6123 10.67 54.4615 10.714L44.9355 13.904ZM46.0355 7.65606V12.364L53.0755 10.01L46.0355 7.65606Z" fill="#5E5BFB"/>
<path d="M72.6011 40.6786H15.5112C15.2573 40.6779 15.007 40.6203 14.7786 40.5098C14.55 40.3993 14.3493 40.239 14.1912 40.0406C14.0385 39.8393 13.9336 39.6061 13.884 39.3584C13.8345 39.1108 13.8417 38.855 13.9052 38.6106C15.6141 31.9261 19.4997 26.0009 24.9492 21.7694C30.3986 17.5379 37.1017 15.241 44.0012 15.241C50.9006 15.241 57.6037 17.5379 63.0531 21.7694C68.5026 26.0009 72.3882 31.9261 74.0972 38.6106C74.1606 38.855 74.1678 39.1108 74.1183 39.3584C74.0688 39.6061 73.9637 39.8393 73.8111 40.0406C73.663 40.2232 73.4795 40.374 73.2715 40.4837C73.0635 40.5933 72.8355 40.6596 72.6011 40.6786ZM17.7112 37.4006H70.4012C68.5255 31.9182 64.9828 27.1593 60.2689 23.7898C55.5549 20.4204 49.9055 18.6089 44.1112 18.6089C38.3167 18.6089 32.6673 20.4204 27.9534 23.7898C23.2394 27.1593 19.6968 31.9182 17.8212 37.4006H17.7112Z" fill="#3C4852"/>
<path d="M44.0016 17.754C43.5657 17.7483 43.1493 17.5725 42.8412 17.2644C42.5329 16.9562 42.3572 16.5398 42.3516 16.104V6.59995C42.3516 6.16234 42.5254 5.74267 42.8348 5.43323C43.1443 5.12379 43.5639 4.94995 44.0016 4.94995C44.4392 4.94995 44.8588 5.12379 45.1683 5.43323C45.4778 5.74267 45.6516 6.16234 45.6516 6.59995V16.104C45.6459 16.5398 45.4702 16.9562 45.162 17.2644C44.8538 17.5725 44.4374 17.7483 44.0016 17.754Z" fill="#3C4852"/>
<path d="M77.2591 40.6785H10.775C10.3374 40.6785 9.91769 40.5047 9.60831 40.1953C9.29885 39.8858 9.125 39.4662 9.125 39.0285C9.125 38.5909 9.29885 38.1713 9.60831 37.8618C9.91769 37.5524 10.3374 37.3785 10.775 37.3785H77.2591C77.6966 37.3785 78.1163 37.5524 78.4257 37.8618C78.7352 38.1713 78.909 38.5909 78.909 39.0285C78.909 39.4662 78.7352 39.8858 78.4257 40.1953C78.1163 40.5047 77.6966 40.6785 77.2591 40.6785Z" fill="#3C4852"/>
<path d="M77.2591 64.0429H10.775C10.3374 64.0429 9.91769 63.8691 9.60831 63.5597C9.29885 63.2503 9.125 62.8305 9.125 62.3929C9.125 61.9553 9.29885 61.5357 9.60831 61.2262C9.91769 60.9168 10.3374 60.7429 10.775 60.7429H77.2591C77.6966 60.7429 78.1163 60.9168 78.4257 61.2262C78.7352 61.5357 78.909 61.9553 78.909 62.3929C78.909 62.8305 78.7352 63.2503 78.4257 63.5597C78.1163 63.8691 77.6966 64.0429 77.2591 64.0429Z" fill="#3C4852"/>
<path d="M15.5115 57.2C15.294 57.203 15.0781 57.1624 14.8766 57.0805C14.6751 56.9986 14.492 56.8772 14.3381 56.7234C14.1844 56.5696 14.063 56.3865 13.9811 56.1849C13.8992 55.9834 13.8585 55.7676 13.8615 55.55V46.2C13.8615 45.7624 14.0354 45.3428 14.3447 45.0333C14.6542 44.7238 15.0739 44.55 15.5115 44.55C15.9491 44.55 16.3688 44.7238 16.6782 45.0333C16.9877 45.3428 17.1615 45.7624 17.1615 46.2V55.704C17.1231 56.1144 16.9324 56.4956 16.627 56.7724C16.3216 57.0493 15.9237 57.2019 15.5115 57.2Z" fill="#3C4852"/>
<path d="M72.609 56.9372C72.1731 56.9314 71.7568 56.7558 71.4486 56.4476C71.1403 56.1394 70.9647 55.723 70.959 55.2872V45.7832C70.959 45.3456 71.1328 44.9258 71.4422 44.6164C71.7517 44.307 72.1714 44.1332 72.609 44.1332C73.0466 44.1332 73.4663 44.307 73.7757 44.6164C74.0851 44.9258 74.259 45.3456 74.259 45.7832V55.2872C74.259 55.7248 74.0851 56.1444 73.7757 56.4539C73.4663 56.7633 73.0466 56.9372 72.609 56.9372Z" fill="#3C4852"/>
<path d="M58.2398 56.9372C57.8022 56.9372 57.3826 56.7633 57.0731 56.4539C56.7636 56.1444 56.5898 55.7248 56.5898 55.2872V45.7832C56.5898 45.3456 56.7636 44.9258 57.0731 44.6164C57.3826 44.307 57.8022 44.1332 58.2398 44.1332C58.6775 44.1332 59.0971 44.307 59.4066 44.6164C59.7159 44.9258 59.8898 45.3456 59.8898 45.7832V55.2872C59.8842 55.723 59.7084 56.1394 59.4003 56.4476C59.0921 56.7558 58.6756 56.9314 58.2398 56.9372Z" fill="#3C4852"/>
<path d="M44.0016 56.9372C43.5657 56.9314 43.1493 56.7558 42.8412 56.4476C42.5329 56.1394 42.3572 55.723 42.3516 55.2872V45.7832C42.3516 45.3456 42.5254 44.9258 42.8348 44.6164C43.1443 44.307 43.5639 44.1332 44.0016 44.1332C44.4392 44.1332 44.8588 44.307 45.1683 44.6164C45.4778 44.9258 45.6516 45.3456 45.6516 45.7832V55.2872C45.6459 55.723 45.4702 56.1394 45.162 56.4476C44.8538 56.7558 44.4374 56.9314 44.0016 56.9372Z" fill="#3C4852"/>
<path d="M29.7359 56.9372C29.3001 56.9314 28.8837 56.7558 28.5755 56.4476C28.2673 56.1394 28.0916 55.723 28.0859 55.2872V45.7832C28.0859 45.3456 28.2597 44.9258 28.5692 44.6164C28.8787 44.307 29.2983 44.1332 29.7359 44.1332C30.1736 44.1332 30.5932 44.307 30.9027 44.6164C31.2121 44.9258 31.3859 45.3456 31.3859 45.7832V55.2872C31.3859 55.7248 31.2121 56.1444 30.9027 56.4539C30.5932 56.7633 30.1736 56.9372 29.7359 56.9372Z" fill="#3C4852"/>
<path d="M77.2591 83.05H10.775C10.3374 83.05 9.91769 82.8762 9.60831 82.5667C9.29885 82.2573 9.125 81.8376 9.125 81.4C9.125 80.9624 9.29885 80.5427 9.60831 80.2333C9.91769 79.9238 10.3374 79.75 10.775 79.75H77.2591C77.6966 79.75 78.1163 79.9238 78.4257 80.2333C78.7352 80.5427 78.909 80.9624 78.909 81.4C78.909 81.8376 78.7352 82.2573 78.4257 82.5667C78.1163 82.8762 77.6966 83.05 77.2591 83.05Z" fill="#3C4852"/>
<path d="M21.8343 72.6021V68.686C21.8137 68.5542 21.822 68.4196 21.8585 68.2913C21.8949 68.163 21.9587 68.0441 22.0455 67.9428C22.1322 67.8415 22.2398 67.7602 22.361 67.7045C22.4822 67.6487 22.6139 67.6199 22.7473 67.6199C22.8806 67.6199 23.0125 67.6487 23.1335 67.7045C23.2547 67.7602 23.3623 67.8415 23.4491 67.9428C23.5359 68.0441 23.5997 68.163 23.6361 68.2913C23.6726 68.4196 23.6808 68.5542 23.6603 68.686V72.6021C23.6603 73.9661 24.3423 74.67 25.4643 74.67C26.5863 74.67 27.2463 73.9881 27.2463 72.6681V68.686C27.2257 68.5542 27.234 68.4196 27.2705 68.2913C27.307 68.163 27.3707 68.0441 27.4575 67.9428C27.5442 67.8415 27.6518 67.7602 27.773 67.7045C27.8942 67.6487 28.0259 67.6199 28.1593 67.6199C28.2926 67.6199 28.4245 67.6487 28.5455 67.7045C28.6667 67.7602 28.7743 67.8415 28.8611 67.9428C28.9479 68.0441 29.0117 68.163 29.0481 68.2913C29.0845 68.4196 29.0928 68.5542 29.0723 68.686V72.6021C29.1342 73.1004 29.0832 73.6062 28.9229 74.0821C28.7626 74.5579 28.4972 74.9917 28.1463 75.3509C27.7955 75.7102 27.3684 75.9859 26.8964 76.1574C26.4245 76.329 25.9199 76.3921 25.4203 76.3421C24.9239 76.39 24.4232 76.3249 23.9556 76.1516C23.488 75.9782 23.0658 75.7011 22.7208 75.3412C22.3756 74.9813 22.1166 74.5479 21.9631 74.0734C21.8095 73.5989 21.7655 73.096 21.8343 72.6021Z" fill="#5E5BFB"/>
<path d="M35.68 68.7521C35.677 68.6318 35.6982 68.5121 35.7422 68.4001C35.7862 68.2882 35.8522 68.1861 35.9363 68.1C36.0203 68.0139 36.1207 67.9455 36.2316 67.8988C36.3425 67.852 36.4616 67.828 36.582 67.8281H39.068C39.4721 67.7811 39.8818 67.8209 40.2693 67.9448C40.6569 68.0687 41.0136 68.274 41.3155 68.5468C41.6175 68.8196 41.8577 69.1536 42.0203 69.5267C42.1828 69.8998 42.2638 70.3032 42.258 70.7101C42.2555 71.1321 42.1631 71.5487 41.987 71.9322C41.8108 72.3157 41.555 72.6572 41.2365 72.9341C40.918 73.211 40.5442 73.4168 40.1399 73.5379C39.7357 73.6589 39.3102 73.6924 38.892 73.6361H37.506V75.2861C37.506 75.4074 37.482 75.5276 37.4356 75.6397C37.3892 75.7518 37.3212 75.8536 37.2354 75.9394C37.1496 76.0252 37.0476 76.0933 36.9355 76.1397C36.8234 76.1862 36.7033 76.2101 36.582 76.2101C36.4616 76.2101 36.3425 76.1861 36.2316 76.1393C36.1207 76.0927 36.0203 76.0243 35.9363 75.9381C35.8522 75.8521 35.7862 75.75 35.7422 75.638C35.6982 75.526 35.677 75.4064 35.68 75.2861V68.7521ZM38.958 72.0301C39.1373 72.0516 39.319 72.0354 39.4917 71.9826C39.6644 71.9299 39.8242 71.8417 39.9608 71.7237C40.0975 71.6056 40.208 71.4604 40.2854 71.2972C40.3627 71.1341 40.4051 70.9566 40.41 70.7761C40.41 69.9401 39.838 69.5001 38.914 69.5001H37.506V72.0521L38.958 72.0301Z" fill="#5E5BFB"/>
<path d="M48.1851 75.2612C48.0505 75.1496 47.9534 74.9996 47.9065 74.8312C47.8596 74.6628 47.8652 74.4842 47.9226 74.3191C47.98 74.1541 48.0865 74.0104 48.2277 73.9075C48.369 73.8046 48.5383 73.7472 48.7131 73.7432C48.8941 73.7368 49.0722 73.791 49.2191 73.8972C49.8474 74.3868 50.6225 74.6503 51.4191 74.6452C52.1671 74.6452 52.6291 74.3592 52.6291 73.8752C52.6291 73.3912 52.3431 73.1712 50.9571 72.8192C49.5711 72.4672 48.1851 71.9172 48.1851 70.2672C48.1944 69.9041 48.2799 69.547 48.4359 69.219C48.5918 68.891 48.8149 68.5993 49.0907 68.363C49.3665 68.1266 49.6888 67.9507 50.0368 67.8468C50.3848 67.7427 50.7507 67.7129 51.1111 67.7592C52.0346 67.75 52.9421 68.0016 53.7291 68.4852C53.8564 68.5587 53.9622 68.6646 54.0355 68.7921C54.109 68.9195 54.1474 69.0641 54.1471 69.2112C54.1471 69.4387 54.0566 69.657 53.8957 69.8179C53.7349 69.9788 53.5166 70.0692 53.2891 70.0692C53.1268 70.0621 52.9685 70.0169 52.8271 69.9372C52.3049 69.5869 51.6955 69.3889 51.0671 69.3652C50.3851 69.3652 50.0111 69.6952 50.0111 70.0912C50.0111 70.6412 50.3631 70.8172 51.7931 71.1912C53.2231 71.5652 54.4331 72.2472 54.4331 73.6772C54.4331 75.3272 53.1791 76.2512 51.3751 76.2512C50.2333 76.2704 49.1153 75.9234 48.1851 75.2612Z" fill="#5E5BFB"/>
<path d="M60.3111 72.0062C60.3016 71.4309 60.4098 70.8597 60.6289 70.3276C60.8481 69.7955 61.1737 69.3139 61.5857 68.9122C61.9978 68.5104 62.4875 68.1972 63.0249 67.9915C63.5624 67.7859 64.1362 67.6922 64.7111 67.7162C65.703 67.6742 66.6798 67.9689 67.4831 68.5522C67.5928 68.6388 67.6816 68.749 67.7425 68.8748C67.8035 69.0006 67.8351 69.1385 67.8351 69.2782C67.8351 69.5175 67.7401 69.7469 67.5709 69.916C67.4017 70.0853 67.1723 70.1802 66.9331 70.1802C66.7338 70.1725 66.5416 70.1033 66.3831 69.9822C65.9016 69.5988 65.3046 69.3895 64.6891 69.3882C64.3588 69.3935 64.0329 69.4658 63.7313 69.6007C63.4297 69.7355 63.1586 69.9302 62.9344 70.173C62.7102 70.4156 62.5376 70.7013 62.4271 71.0126C62.3164 71.3239 62.2702 71.6545 62.2911 71.9842C62.2703 72.315 62.3164 72.6467 62.4268 72.9592C62.5371 73.2718 62.7094 73.5589 62.9332 73.8033C63.1571 74.0477 63.4281 74.2444 63.7297 74.3818C64.0314 74.519 64.3578 74.5941 64.6891 74.6022C65.3516 74.6144 65.9948 74.3791 66.4931 73.9422C66.6501 73.8185 66.8432 73.749 67.0431 73.7442C67.2689 73.7498 67.484 73.842 67.6436 74.0017C67.8033 74.1614 67.8955 74.3764 67.9011 74.6022C67.9028 74.7252 67.8759 74.8469 67.8224 74.9576C67.7689 75.0683 67.6905 75.1651 67.5931 75.2402C66.9603 75.7681 66.1918 76.1077 65.3753 76.2202C64.559 76.3327 63.7273 76.2136 62.9752 75.8766C62.2231 75.5395 61.5809 74.998 61.1216 74.3137C60.6621 73.6295 60.4043 72.8299 60.3771 72.0062H60.3111Z" fill="#5E5BFB"/>
<path d="M77.2505 73.8975C77.9067 73.8975 78.4385 73.3656 78.4385 72.7095C78.4385 72.0534 77.9067 71.5215 77.2505 71.5215C76.5944 71.5215 76.0625 72.0534 76.0625 72.7095C76.0625 73.3656 76.5944 73.8975 77.2505 73.8975Z" fill="#3C4852"/>
<path d="M77.2341 74.4474C76.8904 74.4474 76.5543 74.3455 76.2685 74.1545C75.9827 73.9636 75.76 73.6921 75.6284 73.3745C75.4969 73.057 75.4624 72.7075 75.5295 72.3703C75.5966 72.0333 75.7621 71.7235 76.0052 71.4805C76.2483 71.2374 76.5579 71.0719 76.8951 71.0048C77.2322 70.9377 77.5817 70.9722 77.8992 71.1038C78.2168 71.2353 78.4882 71.458 78.6792 71.7439C78.8702 72.0297 78.9721 72.3656 78.9721 72.7094C78.9721 73.1704 78.789 73.6124 78.463 73.9384C78.1371 74.2643 77.695 74.4474 77.2341 74.4474ZM77.2341 72.0714C77.1079 72.0714 76.9846 72.1089 76.8797 72.1789C76.7747 72.249 76.6929 72.3487 76.6447 72.4653C76.5964 72.5819 76.5838 72.7101 76.6084 72.8339C76.633 72.9576 76.6938 73.0714 76.783 73.1606C76.8722 73.2498 76.9859 73.3105 77.1097 73.3352C77.2334 73.3598 77.3616 73.3471 77.4782 73.2989C77.5948 73.2506 77.6945 73.1688 77.7646 73.0639C77.8347 72.959 77.8721 72.8356 77.8721 72.7094C77.8721 72.5402 77.8049 72.3779 77.6852 72.2583C77.5656 72.1387 77.4034 72.0714 77.2341 72.0714Z" fill="#3C4852"/>
<path d="M10.7525 73.8975C11.4085 73.8975 11.9405 73.3656 11.9405 72.7095C11.9405 72.0534 11.4085 71.5215 10.7525 71.5215C10.0963 71.5215 9.56445 72.0534 9.56445 72.7095C9.56445 73.3656 10.0963 73.8975 10.7525 73.8975Z" fill="#3C4852"/>
<path d="M10.7692 74.4474C10.4255 74.4474 10.0895 74.3455 9.8037 74.1545C9.51788 73.9636 9.29513 73.6921 9.16355 73.3745C9.032 73.057 8.99758 72.7075 9.06465 72.3703C9.13171 72.0333 9.29724 71.7235 9.54034 71.4805C9.78335 71.2374 10.093 71.0719 10.4302 71.0048C10.7673 70.9377 11.1167 70.9722 11.4344 71.1038C11.7519 71.2353 12.0234 71.458 12.2144 71.7439C12.4053 72.0297 12.5072 72.3656 12.5072 72.7094C12.5072 73.1704 12.3242 73.6124 11.9982 73.9384C11.6722 74.2643 11.2302 74.4474 10.7692 74.4474ZM10.7692 72.0714C10.6431 72.0714 10.5197 72.1089 10.4148 72.1789C10.3099 72.249 10.2281 72.3487 10.1798 72.4653C10.1315 72.5819 10.1189 72.7101 10.1435 72.8339C10.1682 72.9576 10.2289 73.0714 10.3181 73.1606C10.4073 73.2498 10.521 73.3105 10.6447 73.3352C10.7686 73.3598 10.8968 73.3471 11.0134 73.2989C11.13 73.2506 11.2297 73.1688 11.2997 73.0639C11.3698 72.959 11.4072 72.8356 11.4072 72.7094C11.4072 72.5402 11.34 72.3779 11.2204 72.2583C11.1007 72.1387 10.9384 72.0714 10.7692 72.0714Z" fill="#3C4852"/>
</svg>
