<svg width="20" height="21" viewBox="0 0 20 21" fill="none" xmlns="http://www.w3.org/2000/svg">
<path d="M13.7493 2.85417C12.2993 2.85417 10.9077 3.52917 9.99935 4.59584C9.09102 3.52917 7.69935 2.85417 6.24935 2.85417C3.68268 2.85417 1.66602 4.87084 1.66602 7.43751C1.66602 10.5875 4.49935 13.1542 8.79102 17.0542L9.99935 18.1458L11.2077 17.0458C15.4993 13.1542 18.3327 10.5875 18.3327 7.43751C18.3327 4.87084 16.316 2.85417 13.7493 2.85417ZM10.0827 15.8125L9.99935 15.8958L9.91602 15.8125C5.94935 12.2208 3.33268 9.84584 3.33268 7.43751C3.33268 5.77084 4.58268 4.52084 6.24935 4.52084C7.53268 4.52084 8.78268 5.34584 9.22435 6.48751H10.7827C11.216 5.34584 12.466 4.52084 13.7493 4.52084C15.416 4.52084 16.666 5.77084 16.666 7.43751C16.666 9.84584 14.0493 12.2208 10.0827 15.8125Z" fill="#737373"/>
</svg>
