<svg width="20" height="21" viewBox="0 0 20 21" fill="none" xmlns="http://www.w3.org/2000/svg">
<path d="M15 13.9333C14.3667 13.9333 13.8 14.1833 13.3667 14.575L7.425 11.1167C7.46667 10.925 7.5 10.7333 7.5 10.5333C7.5 10.3333 7.46667 10.1417 7.425 9.95L13.3 6.525C13.75 6.94166 14.3417 7.2 15 7.2C16.3833 7.2 17.5 6.08333 17.5 4.7C17.5 3.31666 16.3833 2.2 15 2.2C13.6167 2.2 12.5 3.31666 12.5 4.7C12.5 4.9 12.5333 5.09166 12.575 5.28333L6.7 8.70833C6.25 8.29166 5.65833 8.03333 5 8.03333C3.61667 8.03333 2.5 9.15 2.5 10.5333C2.5 11.9167 3.61667 13.0333 5 13.0333C5.65833 13.0333 6.25 12.775 6.7 12.3583L12.6333 15.825C12.5917 16 12.5667 16.1833 12.5667 16.3667C12.5667 17.7083 13.6583 18.8 15 18.8C16.3417 18.8 17.4333 17.7083 17.4333 16.3667C17.4333 15.025 16.3417 13.9333 15 13.9333ZM15 3.86666C15.4583 3.86666 15.8333 4.24166 15.8333 4.7C15.8333 5.15833 15.4583 5.53333 15 5.53333C14.5417 5.53333 14.1667 5.15833 14.1667 4.7C14.1667 4.24166 14.5417 3.86666 15 3.86666ZM5 11.3667C4.54167 11.3667 4.16667 10.9917 4.16667 10.5333C4.16667 10.075 4.54167 9.7 5 9.7C5.45833 9.7 5.83333 10.075 5.83333 10.5333C5.83333 10.9917 5.45833 11.3667 5 11.3667ZM15 17.2167C14.5417 17.2167 14.1667 16.8417 14.1667 16.3833C14.1667 15.925 14.5417 15.55 15 15.55C15.4583 15.55 15.8333 15.925 15.8333 16.3833C15.8333 16.8417 15.4583 17.2167 15 17.2167Z" fill="#737373"/>
</svg>
